<?xml version="1.0" standalone="no"?>
<!DOCTYPE svg PUBLIC "-//W3C//DTD SVG 20010904//EN"
 "http://www.w3.org/TR/2001/REC-SVG-20010904/DTD/svg10.dtd">
<svg version="1.0" xmlns="http://www.w3.org/2000/svg"
 width="500.000000pt" height="500.000000pt" viewBox="0 0 500.000000 500.000000"
 preserveAspectRatio="xMidYMid meet">

<g transform="translate(0.000000,500.000000) scale(0.100000,-0.100000)"
fill="#000000" stroke="none">
<path d="M0 2500 l0 -2500 2500 0 2500 0 0 2500 0 2500 -2500 0 -2500 0 0
-2500z m2678 2294 c20 -14 22 -23 22 -115 0 -125 -10 -139 -100 -139 -89 0
-100 14 -100 135 0 120 11 135 98 135 36 0 66 -6 80 -16z m-384 -26 c3 -13 10
-59 16 -103 6 -44 13 -92 16 -107 4 -21 2 -28 -9 -28 -17 0 -21 14 -38 140
l-12 84 -23 -52 c-13 -29 -27 -52 -33 -52 -5 0 -26 19 -45 42 -20 23 -36 37
-36 32 0 -5 7 -52 15 -104 18 -116 18 -110 1 -110 -13 0 -25 55 -42 204 -8 70
3 72 63 14 l43 -42 21 52 c24 57 55 71 63 30z m640 -25 c-3 -21 -13 -69 -20
-107 -18 -86 -10 -97 67 -100 l54 -1 21 103 c23 108 27 118 42 108 13 -8 -32
-226 -49 -238 -16 -11 -122 -3 -148 12 -31 16 -32 38 -11 147 11 57 20 106 20
109 0 2 7 4 15 4 13 0 15 -8 9 -37z m525 -113 c42 -22 19 -117 -31 -127 -27
-5 -28 -7 -28 -70 0 -57 -2 -64 -15 -53 -10 8 -15 31 -15 71 0 53 -2 60 -24
69 -53 20 -58 17 -79 -38 -11 -29 -25 -51 -31 -49 -14 6 -13 10 37 144 l41
111 62 -23 c35 -13 72 -29 83 -35z m-1948 -88 c15 -13 20 -25 15 -37 -6 -17
-8 -17 -27 3 l-20 22 -49 -25 c-61 -31 -65 -37 -45 -75 19 -37 26 -37 82 -4
59 34 92 29 117 -17 27 -51 17 -78 -44 -111 -27 -16 -61 -28 -74 -28 -30 0
-61 39 -45 55 7 7 13 5 20 -7 13 -23 31 -23 80 2 46 24 56 42 41 76 -15 31
-30 30 -94 -2 -62 -31 -91 -23 -114 32 -14 32 -13 38 1 61 14 20 104 73 126
73 4 0 17 -8 30 -18z m2304 -12 c16 -16 35 -30 42 -30 8 0 11 -4 8 -10 -11
-18 -34 -11 -65 20 -17 17 -38 30 -46 30 -8 0 -12 5 -9 10 11 19 41 10 70 -20z
m-34 -56 c31 -15 31 -16 24 -76 -10 -82 -18 -107 -50 -157 -19 -31 -30 -40
-37 -33 -8 8 -6 19 7 38 20 31 22 28 -66 82 l-38 23 -16 -31 c-8 -16 -22 -30
-30 -30 -20 0 -19 3 13 60 26 46 130 140 154 140 5 0 23 -7 39 -16z m-2563
-201 c81 -107 81 -120 1 -179 -68 -50 -84 -44 -164 63 -36 47 -65 90 -65 95 0
27 34 -2 89 -77 34 -47 67 -85 73 -85 18 0 98 63 98 77 0 8 -29 53 -65 100
-47 62 -62 89 -53 94 7 5 16 5 19 1 3 -4 34 -44 67 -89z m2894 -29 c76 -64 76
-70 -4 -168 -77 -95 -98 -99 -170 -32 -27 24 -48 50 -48 58 0 17 22 49 83 121
59 68 78 71 139 21z m-3269 -151 c4 -3 -18 -33 -50 -65 l-56 -60 31 -31 32
-31 48 47 c43 43 72 59 72 40 0 -4 -21 -29 -47 -55 l-47 -48 32 -33 32 -32 54
60 c37 41 57 57 65 50 7 -7 -9 -32 -53 -80 l-63 -70 -97 89 c-53 48 -96 90
-96 93 0 8 122 133 130 133 4 0 10 -3 13 -7z m2542 -48 c88 -51 147 -142 182
-280 24 -97 24 -383 -1 -510 -9 -49 -20 -106 -23 -126 l-5 -36 98 -32 c236
-76 475 -224 568 -351 107 -145 100 -299 -21 -447 -88 -107 -302 -237 -518
-314 -66 -24 -121 -43 -122 -44 -1 0 2 -18 7 -40 46 -193 57 -452 27 -600 -34
-165 -126 -293 -237 -330 -62 -21 -176 -21 -255 0 -131 35 -328 152 -493 294
-45 39 -84 71 -87 71 -3 0 -27 -20 -53 -44 -151 -141 -399 -286 -549 -322
-237 -55 -403 45 -467 282 -37 133 -31 386 13 596 l18 87 -96 31 c-142 46
-342 148 -436 223 -239 189 -278 397 -112 592 94 110 307 236 532 314 73 25
110 43 109 52 -1 8 -12 68 -25 134 -30 154 -33 421 -6 528 34 138 101 233 195
278 64 30 184 37 272 14 147 -38 336 -147 510 -294 l95 -80 45 42 c161 153
376 287 522 328 116 32 243 26 313 -16z m-2704 -330 c74 -48 99 -69 91 -77 -8
-8 -22 -4 -52 16 -23 15 -47 25 -54 23 -6 -3 -26 -28 -43 -56 l-32 -51 51 -35
c38 -25 48 -36 36 -40 -19 -8 -218 122 -218 142 0 19 6 17 55 -17 24 -16 46
-30 48 -30 5 0 77 107 77 114 0 2 -20 17 -45 33 -25 15 -45 34 -45 42 0 18 15
11 131 -64z m-317 -284 c3 -5 -1 -25 -9 -44 l-14 -34 97 -44 c109 -48 117 -53
108 -67 -4 -7 -45 6 -106 34 -55 24 -104 44 -109 44 -5 0 -15 -16 -21 -35 -11
-34 -23 -44 -34 -26 -6 10 65 181 76 181 4 0 9 -4 12 -9z m30 -424 c63 -16 78
-43 19 -34 l-41 7 -16 -65 c-9 -35 -16 -66 -16 -68 0 -3 16 -8 35 -11 21 -4
35 -13 35 -21 0 -18 -2 -18 -67 -1 -28 8 -80 35 -116 60 l-65 46 10 40 c11 41
7 40 98 53 49 8 76 6 124 -6z m4306 -96 c0 -6 -20 -24 -45 -42 -28 -20 -44
-38 -40 -47 3 -7 5 -23 5 -34 0 -20 16 -20 83 -2 10 3 17 0 17 -9 0 -10 -29
-19 -105 -32 -58 -10 -107 -16 -110 -14 -2 3 -7 36 -11 73 -6 60 -5 71 11 83
25 18 70 17 90 -3 14 -15 19 -14 53 9 40 28 52 32 52 18z m-4337 -277 c9 -3
17 -10 17 -16 0 -8 -34 -9 -110 -4 -60 3 -110 5 -110 3 0 -3 18 -17 40 -32 22
-15 40 -33 40 -39 0 -7 -21 -23 -47 -36 l-48 -24 50 -7 c28 -4 76 -8 108 -8
46 -1 57 -4 57 -17 0 -15 -12 -16 -112 -10 -62 4 -121 9 -130 12 -31 9 -19 32
33 62 l51 29 -46 38 c-75 61 -66 69 72 61 64 -4 125 -10 135 -12z m4185 -117
c3 -58 6 -67 22 -67 42 0 50 10 50 66 0 52 11 71 24 38 3 -9 6 -33 6 -55 0
-38 1 -39 35 -39 l35 0 0 65 c0 36 4 65 9 65 9 0 23 -138 15 -152 -3 -4 -54
-8 -115 -8 l-109 0 0 81 c0 60 3 80 13 77 7 -3 13 -29 15 -71z m71 -256 c19
-19 20 -41 7 -113 -3 -13 7 -18 45 -23 27 -4 49 -12 49 -17 0 -11 -91 -6 -183
9 l-38 6 7 61 c4 33 13 69 22 79 20 23 67 22 91 -2z m-31 -307 c78 -22 85 -30
79 -81 -6 -53 -31 -93 -59 -93 -11 0 -52 9 -89 20 -78 24 -90 41 -69 107 23
70 39 75 138 47z m-8 -348 c0 -15 -62 -136 -70 -136 -19 0 -185 79 -188 89 -6
18 11 13 92 -24 43 -19 81 -35 86 -35 4 0 18 25 31 55 12 30 29 55 36 55 7 0
13 -2 13 -4z m-320 -194 c0 -4 -16 -31 -35 -59 l-35 -52 31 -22 c16 -11 31
-20 32 -18 2 2 15 23 30 47 15 23 32 42 37 42 16 0 12 -12 -20 -60 l-29 -44
27 -18 c15 -10 30 -18 33 -18 4 0 21 23 39 50 18 28 39 50 47 50 16 0 18 4
-45 -92 -14 -21 -29 -38 -34 -38 -12 0 -178 107 -178 115 0 13 81 125 90 125
6 0 10 -3 10 -8z m-3393 -97 c48 -72 41 -100 -8 -33 -17 24 -33 49 -36 55 -4
10 -12 9 -34 -4 -16 -10 -29 -21 -29 -26 0 -5 14 -28 30 -52 33 -49 35 -55 18
-55 -7 0 -26 20 -41 45 -16 25 -32 45 -36 45 -3 0 -23 -11 -43 -25 -46 -31
-60 -15 -16 18 48 35 142 97 148 97 3 0 24 -29 47 -65z m3250 -177 c17 -18 43
-57 58 -86 25 -50 25 -55 10 -78 -19 -29 -31 -30 -97 -6 -57 19 -138 84 -120
95 6 4 26 -6 45 -22 18 -17 56 -39 84 -50 46 -18 53 -18 64 -5 17 21 -21 99
-67 137 -19 16 -34 33 -34 38 0 19 27 8 57 -23z m-3027 -113 c0 -33 -44 -69
-75 -62 -24 4 -29 0 -46 -39 -10 -24 -23 -44 -29 -44 -13 0 -13 1 10 61 l21
52 -22 23 -22 23 -34 -29 c-33 -29 -53 -38 -53 -22 0 4 34 39 77 79 l78 72 48
-47 c27 -26 47 -55 47 -67z m2780 -83 c0 -5 -22 -26 -49 -48 l-48 -40 22 -28
23 -29 45 37 c48 39 57 43 57 24 -1 -7 -19 -26 -40 -43 -21 -16 -39 -33 -40
-36 0 -4 9 -18 21 -33 l20 -26 48 40 c44 38 71 50 71 33 0 -10 -119 -107 -124
-102 -2 2 -34 40 -71 84 l-66 80 53 47 c50 45 78 59 78 40z m-2592 -68 c24
-20 42 -44 42 -56 0 -27 -97 -148 -119 -148 -24 0 -99 57 -106 81 -5 13 2 32
21 57 45 61 87 102 104 102 9 0 35 -16 58 -36z m2354 -126 c8 -7 32 -41 52
-75 43 -73 42 -92 -12 -124 -20 -13 -46 -29 -58 -36 -20 -13 -24 -9 -73 73
-29 48 -53 92 -54 97 -2 10 101 77 119 77 5 0 17 -6 26 -12z m-2155 -10 c5 -7
18 -35 28 -63 24 -69 29 -71 54 -30 11 20 25 33 31 30 5 -3 -6 -33 -26 -68
-19 -34 -42 -77 -51 -94 -9 -18 -23 -33 -30 -33 -18 0 -17 5 11 53 l23 42 -27
70 -27 69 -47 -82 c-41 -71 -66 -99 -66 -75 0 13 103 193 110 193 4 0 12 -6
17 -12z m385 -184 c4 -3 8 -10 8 -15 0 -9 -17 -7 -56 8 -7 3 -25 -31 -44 -82
-31 -80 -45 -103 -56 -93 -4 5 9 46 45 136 l21 53 -30 10 c-16 6 -30 17 -30
25 0 10 16 7 67 -12 37 -14 71 -28 75 -30z m1212 -66 c18 -29 39 -125 35 -158
-4 -26 -34 -41 -112 -55 l-35 -7 -20 89 c-32 135 -33 125 18 139 70 19 98 17
114 -8z m-663 -38 c47 0 59 -3 59 -15 0 -14 -10 -15 -61 -9 -66 7 -79 0 -79
-42 0 -24 23 -34 83 -34 20 0 37 -4 37 -10 0 -6 -27 -10 -60 -10 l-60 0 0 -34
c0 -31 3 -34 38 -40 20 -3 49 -6 65 -6 15 0 27 -5 27 -10 0 -7 -29 -10 -77 -8
l-78 3 4 105 c4 115 6 124 28 116 8 -3 41 -6 74 -6z m369 -17 c0 -16 3 -65 7
-110 7 -91 -10 -118 -21 -34 -6 45 -10 51 -61 85 -30 20 -57 36 -61 36 -3 0
-2 -40 2 -90 4 -62 3 -90 -4 -90 -11 0 -16 30 -27 153 -8 77 2 85 58 43 18
-13 45 -32 61 -42 l29 -18 -7 47 c-6 39 -5 47 8 47 11 0 16 -9 16 -27z m-709
-39 c38 -8 69 -20 69 -25 0 -20 -140 7 -148 29 -5 15 -5 15 79 -4z"/>
<path d="M2541 4766 c-8 -9 -11 -46 -9 -103 l3 -88 59 -3 c41 -2 62 1 67 10 5
7 9 52 9 99 0 97 -1 99 -75 99 -24 0 -48 -6 -54 -14z"/>
<path d="M3321 4627 c-22 -56 -19 -61 42 -82 58 -20 59 -20 73 -1 27 38 18 63
-28 79 -24 8 -51 18 -60 22 -13 5 -20 1 -27 -18z"/>
<path d="M3691 4420 c-28 -22 -51 -42 -51 -44 0 -3 25 -19 56 -37 64 -36 68
-34 78 43 7 47 -3 78 -24 78 -5 0 -31 -18 -59 -40z"/>
<path d="M3976 4181 c-31 -37 -56 -71 -56 -74 0 -15 77 -77 95 -76 19 0 125
117 125 137 0 14 -78 82 -94 82 -8 0 -39 -31 -70 -69z"/>
<path d="M3141 3925 c-126 -28 -318 -143 -464 -277 l-68 -63 85 -100 c47 -55
114 -139 149 -187 59 -83 64 -87 107 -93 129 -17 373 -57 401 -65 22 -7 35 -6
40 1 3 6 15 56 25 112 14 75 19 148 19 272 0 148 -3 179 -22 240 -29 92 -76
148 -137 164 -53 13 -54 13 -135 -4z"/>
<path d="M1679 3907 c-44 -29 -75 -77 -97 -146 -26 -86 -23 -382 6 -515 11
-54 23 -101 26 -104 4 -3 60 5 126 17 65 12 171 28 235 35 64 8 117 15 119 17
1 2 37 49 78 104 41 55 107 137 147 182 39 46 71 86 71 91 0 13 -143 130 -230
189 -205 138 -393 189 -481 130z"/>
<path d="M2406 3369 c-54 -63 -102 -122 -107 -131 -9 -16 5 -17 201 -17 115 0
210 2 210 6 0 5 -105 137 -178 222 l-29 34 -97 -114z"/>
<path d="M2265 3071 l-90 -6 -56 -85 c-64 -96 -140 -228 -219 -377 l-54 -101
54 -104 c55 -106 183 -324 242 -413 l33 -50 115 -8 c111 -7 509 -1 534 9 15 6
200 313 277 461 l54 101 -31 64 c-74 150 -280 493 -302 502 -21 9 -457 14
-557 7z m336 -271 c73 -27 124 -65 159 -118 134 -203 7 -470 -233 -489 -230
-19 -396 195 -322 416 29 88 88 148 184 187 70 29 143 31 212 4z"/>
<path d="M1935 3043 c-44 -6 -247 -43 -267 -49 -15 -5 -12 -19 27 -127 55
-156 68 -187 75 -187 3 0 18 24 32 54 15 30 61 111 102 181 79 131 81 136 69
134 -5 -1 -21 -4 -38 -6z"/>
<path d="M3020 3044 c0 -1 22 -38 48 -81 27 -43 75 -125 107 -182 56 -98 59
-102 71 -80 20 39 105 281 101 286 -11 10 -327 66 -327 57z"/>
<path d="M1380 2911 c-196 -70 -323 -143 -423 -242 -64 -65 -87 -109 -87 -169
0 -111 138 -245 365 -355 82 -39 265 -109 270 -103 1 2 16 46 34 98 18 52 57
155 87 228 l55 132 -55 133 c-30 72 -69 174 -86 225 -18 50 -38 92 -44 91 -6
0 -58 -17 -116 -38z"/>
<path d="M3456 2837 c-21 -62 -60 -162 -87 -224 l-49 -111 41 -88 c22 -48 63
-149 91 -223 27 -75 51 -137 53 -139 5 -6 223 76 285 108 148 74 280 182 320
260 24 47 28 116 10 152 -61 116 -239 240 -470 326 -168 63 -149 69 -194 -61z"/>
<path d="M3193 2252 c-23 -42 -71 -126 -107 -186 -36 -60 -66 -111 -66 -113 0
-1 12 0 28 2 15 3 68 11 117 19 50 9 113 20 142 26 l51 11 -23 67 c-21 63 -95
252 -99 252 0 0 -20 -35 -43 -78z"/>
<path d="M1751 2288 c-33 -83 -101 -281 -98 -285 7 -7 318 -56 323 -50 3 3
-25 56 -63 118 -38 63 -84 144 -103 181 -19 38 -37 68 -40 68 -3 0 -11 -15
-19 -32z"/>
<path d="M3305 1849 c-44 -10 -141 -25 -215 -34 -74 -9 -145 -19 -156 -21 -14
-2 -52 -45 -102 -111 -44 -60 -111 -145 -150 -189 l-70 -82 41 -39 c240 -227
529 -355 654 -290 87 46 143 203 143 402 0 113 -42 387 -58 384 -4 -1 -43 -10
-87 -20z"/>
<path d="M1606 1843 c-3 -10 -15 -72 -27 -138 -17 -100 -20 -146 -16 -270 6
-205 34 -287 117 -343 31 -21 44 -23 120 -20 64 3 102 11 152 31 133 55 263
140 398 259 l53 46 -85 99 c-46 54 -115 139 -152 188 -38 50 -69 91 -71 93 -1
1 -62 9 -136 18 -74 8 -179 24 -234 35 -121 23 -112 23 -119 2z"/>
<path d="M2317 1741 c16 -21 64 -80 106 -130 68 -80 81 -90 94 -79 18 14 132
152 176 210 l28 38 -216 0 -216 0 28 -39z"/>
<path d="M250 2981 c-39 -5 -45 -9 -45 -30 0 -17 15 -35 52 -63 l52 -38 10 38
c6 21 14 52 17 70 7 36 8 35 -86 23z"/>
<path d="M4527 2869 c-15 -9 -17 -18 -11 -57 9 -61 8 -61 46 -53 31 7 33 9 29
47 -6 68 -24 86 -64 63z"/>
<path d="M4546 2251 c-4 -6 -9 -33 -13 -60 l-5 -49 35 -4 36 -4 7 54 c3 29 5
55 3 57 -11 11 -58 15 -63 6z"/>
<path d="M4486 1938 c-3 -7 -9 -28 -15 -47 -6 -18 -8 -37 -5 -42 8 -14 146
-51 154 -42 9 10 30 72 30 89 0 8 -29 22 -69 34 -80 23 -90 24 -95 8z"/>
<path d="M968 1083 l-28 -29 39 -38 c41 -40 62 -42 80 -8 8 15 3 27 -27 61
l-37 43 -27 -29z"/>
<path d="M1161 827 c-22 -30 -41 -59 -41 -65 0 -14 58 -62 75 -62 14 0 105
104 105 120 0 12 -67 60 -83 60 -8 0 -33 -24 -56 -53z"/>
<path d="M3553 708 c-18 -11 -33 -24 -33 -30 0 -17 75 -138 85 -138 17 0 85
50 85 63 0 7 -15 37 -33 67 -37 62 -56 69 -104 38z"/>
<path d="M2992 476 c-24 -6 -43 -14 -44 -19 -1 -17 24 -134 31 -146 9 -15 70
-6 97 14 17 12 16 16 -2 85 -10 41 -23 74 -29 76 -5 1 -29 -3 -53 -10z"/>
</g>
</svg>
